<svg width="1783" height="1089" fill="none" xmlns="http://www.w3.org/2000/svg"><g filter="url('#filter0_f_87_82')" clip-path="url('#clip0_87_82')"><path fill-rule="evenodd" clip-rule="evenodd" d="M758.93 279.89c166.917 20.371 259.72 94.096 401.96 140.9 210.45 69.25 563.27 73.631 615.54 193.91 52.26 120.263-218.66 211.63-402.32 296.772-178.42 82.717-371.65 196.118-615.18 174.938-237.66-20.67-290.297-169.647-427.242-265.603C234.813 752.928 123.092 695.115 85.715 614.7 34.598 504.724-77.957 370.348 84.712 289.448c162.738-80.935 447.625-37.213 674.218-9.558Z" fill="#6425A3"/></g><defs><clipPath id="clip0_87_82"><path fill="#fff" d="M0 0h1783v1089H0z"/></clipPath><filter id="filter0_f_87_82" x="-400" y="-157" width="2583" height="1646" filterUnits="userSpaceOnUse" color-interpolation-filters="sRGB"><feFlood flood-opacity="0" result="BackgroundImageFix"/><feBlend in="SourceGraphic" in2="BackgroundImageFix" result="shape"/><feGaussianBlur stdDeviation="200" result="effect1_foregroundBlur_87_82"/></filter></defs></svg>