<svg width="627" height="777" fill="none" xmlns="http://www.w3.org/2000/svg"><g filter="url('#filter0_f_87_84')" clip-path="url('#clip0_87_84')"><path fill-rule="evenodd" clip-rule="evenodd" d="M378.718 458.699c48.019-8.074 101.419-14.084 146.519-1.285 46.717 13.258 82.463 40.506 96.92 70.372 13.78 28.469-4.561 58.303-21.116 86.231-14.029 23.666-37.671 43.935-66.73 61.963-27.698 17.185-63.966 25.937-96.766 39.474-50.329 20.773-86.697 58.909-147.567 61.372-62.922 2.546-119.901-23.28-166.843-48.65-51.18-27.661-96.725-61.155-111.245-101.643-14.993-41.806-25.311-97.712 30.182-124.39 62.426-30.011 156.602 7.129 234.697-2.949 40.625-5.242 61.932-33.766 101.949-40.495Z" fill="#973286"/></g><defs><clipPath id="clip0_87_84"><path fill="#fff" d="M0 0h627v777H0z"/></clipPath><filter id="filter0_f_87_84" x="-400" y="50" width="1427" height="1127" filterUnits="userSpaceOnUse" color-interpolation-filters="sRGB"><feFlood flood-opacity="0" result="BackgroundImageFix"/><feBlend in="SourceGraphic" in2="BackgroundImageFix" result="shape"/><feGaussianBlur stdDeviation="200" result="effect1_foregroundBlur_87_84"/></filter></defs></svg>