<svg width="714" height="1089" fill="none" xmlns="http://www.w3.org/2000/svg"><g filter="url('#filter0_f_87_78')" clip-path="url('#clip0_87_78')"><path fill-rule="evenodd" clip-rule="evenodd" d="M332.33 482.492c90.523 8.035 170.477-122.48 246.063-82.672 76.434 40.256-27.798 143.056-.595 211.952 21.624 54.764 130.092 73.523 135.878 130.664 5.689 56.175-64.887 97.33-108.234 142.321-46.593 48.36-87.855 99.966-154.656 130.543-79.187 36.24-187.451 103.74-258.955 58.76-85.292-53.65-15.307-166.726-44.062-249.362-12.888-37.04-58.342-60.053-76.062-95.848-21.949-44.339-35.865-88.914-38.911-136.405-5.231-81.559-79.67-205.07 14.786-239.743 101.5-37.259 173.356 119.902 284.748 129.79Z" fill="#6D459A"/></g><defs><clipPath id="clip0_87_78"><path fill="#fff" d="M0 0h714v1089H0z"/></clipPath><filter id="filter0_f_87_78" x="-400" y="-53" width="1514" height="1542" filterUnits="userSpaceOnUse" color-interpolation-filters="sRGB"><feFlood flood-opacity="0" result="BackgroundImageFix"/><feBlend in="SourceGraphic" in2="BackgroundImageFix" result="shape"/><feGaussianBlur stdDeviation="200" result="effect1_foregroundBlur_87_78"/></filter></defs></svg>