<svg width="447" height="881" fill="none" xmlns="http://www.w3.org/2000/svg"><g filter="url('#filter0_f_87_86')" clip-path="url('#clip0_87_86')"><path fill-rule="evenodd" clip-rule="evenodd" d="M210.94 491.761c51.755-5.158 104.661 16.612 141.526 44.013 34.071 25.324 33.217 64.824 50.002 98.347 15.285 30.53 47.84 57.462 44.259 89.915-3.65 33.079-35.617 59.501-63.605 85.416-29.017 26.868-57.381 57.024-101.6 67.552-44.591 10.615-91.46-2.344-136.894-10.773-47.283-8.772-119.195-4.699-133.076-39.314-16.481-41.101 73.923-71.531 71.45-114.368-2.06-35.65-85.075-49.334-82.962-84.982 1.907-32.189 59.074-44.691 91.898-65.828 39.014-25.122 67.772-64.872 119.002-69.978Z" fill="#D056DB"/></g><defs><clipPath id="clip0_87_86"><path fill="#fff" d="M0 0h447v881H0z"/></clipPath><filter id="filter0_f_87_86" x="-400" y="91" width="1247" height="1190" filterUnits="userSpaceOnUse" color-interpolation-filters="sRGB"><feFlood flood-opacity="0" result="BackgroundImageFix"/><feBlend in="SourceGraphic" in2="BackgroundImageFix" result="shape"/><feGaussianBlur stdDeviation="200" result="effect1_foregroundBlur_87_86"/></filter></defs></svg>