<svg width="1831" height="1134" fill="none" xmlns="http://www.w3.org/2000/svg"><g filter="url('#filter0_f_87_92')" clip-path="url('#clip0_87_92')"><path fill-rule="evenodd" clip-rule="evenodd" d="M779.362 281.852c171.41 21.455 266.708 99.102 412.778 148.395 216.12 72.934 578.44 77.547 632.11 204.224 53.67 126.66-224.55 222.887-413.14 312.558-183.23 87.121-381.66 206.551-631.748 184.251-244.059-21.77-298.113-178.679-438.745-279.738-99.483-71.49-214.212-132.379-252.595-217.071-52.493-115.826-168.078-257.349-1.03-342.552 167.12-85.24 459.676-39.193 692.37-10.067Z" fill="#6425A3"/></g><defs><clipPath id="clip0_87_92"><path fill="#fff" d="M0 0h1831v1134H0z"/></clipPath><filter id="filter0_f_87_92" x="-400" y="-157" width="2631" height="1691" filterUnits="userSpaceOnUse" color-interpolation-filters="sRGB"><feFlood flood-opacity="0" result="BackgroundImageFix"/><feBlend in="SourceGraphic" in2="BackgroundImageFix" result="shape"/><feGaussianBlur stdDeviation="200" result="effect1_foregroundBlur_87_92"/></filter></defs></svg>