<svg width="311" height="777" fill="none" xmlns="http://www.w3.org/2000/svg"><g filter="url('#filter0_f_87_96')" clip-path="url('#clip0_87_96')"><path fill-rule="evenodd" clip-rule="evenodd" d="M146.761 491.558c36.009-3.783 72.818 12.182 98.467 32.276 23.705 18.571 23.111 47.538 34.789 72.122 10.635 22.388 33.284 42.138 30.793 65.937-2.539 24.258-24.78 43.634-44.253 62.638-20.189 19.703-39.923 41.818-70.688 49.538-31.024 7.785-63.634-1.718-95.244-7.9-32.897-6.433-82.93-3.446-92.588-28.83-11.467-30.141 51.432-52.456 49.711-83.87-1.432-26.143-59.19-36.178-57.72-62.32 1.327-23.605 41.1-32.773 63.938-48.273 27.144-18.424 47.152-47.574 82.795-51.318Z" fill="#D056DB"/></g><defs><clipPath id="clip0_87_96"><path fill="#fff" d="M0 0h311v777H0z"/></clipPath><filter id="filter0_f_87_96" x="-400" y="91" width="1111" height="1086" filterUnits="userSpaceOnUse" color-interpolation-filters="sRGB"><feFlood flood-opacity="0" result="BackgroundImageFix"/><feBlend in="SourceGraphic" in2="BackgroundImageFix" result="shape"/><feGaussianBlur stdDeviation="200" result="effect1_foregroundBlur_87_96"/></filter></defs></svg>