<svg width="1801" height="253" fill="none" xmlns="http://www.w3.org/2000/svg"><g filter="url('#filter0_f_87_90')" clip-path="url('#clip0_87_90')"><path fill-rule="evenodd" clip-rule="evenodd" d="M817.838 19.267c257.392 6.011 569.112 29.498 717.972 55.655 108.83 19.123 259.28 50.549 255.51 73.777-3.72 22.868 52.59-3.97-70.47 13.366-137.83 19.417-693.22 87.357-903.012 90.405-226.527 3.292-459.492-9.012-611.231-29.667C61.498 203.05 75.951 175.034 55.516 148.699c-23.97-30.891-124.574-64.241 24.149-89.493 162.775-27.637 463.12-46.363 738.173-39.94Z" fill="#7721D6"/></g><defs><clipPath id="clip0_87_90"><path fill="#fff" d="M0 0h1801v253H0z"/></clipPath><filter id="filter0_f_87_90" x="-400" y="-382" width="2601" height="1035" filterUnits="userSpaceOnUse" color-interpolation-filters="sRGB"><feFlood flood-opacity="0" result="BackgroundImageFix"/><feBlend in="SourceGraphic" in2="BackgroundImageFix" result="shape"/><feGaussianBlur stdDeviation="200" result="effect1_foregroundBlur_87_90"/></filter></defs></svg>