<svg width="1514" height="1542" fill="none" xmlns="http://www.w3.org/2000/svg"><g filter="url('#filter0_f_67_38')"><path fill-rule="evenodd" clip-rule="evenodd" d="M732.33 535.492c90.523 8.035 170.477-122.48 246.063-82.672 76.437 40.256-27.798 143.056-.595 211.952 21.624 54.764 130.092 73.523 135.882 130.664 5.68 56.175-64.89 97.33-108.24 142.321-46.591 48.36-87.853 99.963-154.654 130.543-79.187 36.24-187.451 103.74-258.955 58.76-85.292-53.65-15.307-166.726-44.062-249.362-12.888-37.04-58.341-60.053-76.062-95.848-21.949-44.339-35.865-88.914-38.911-136.405-5.231-81.559-79.67-205.07 14.786-239.743 101.5-37.259 173.356 119.902 284.748 129.79Z" fill="#93459A"/></g><defs><filter id="filter0_f_67_38" x="0" y="0" width="1514" height="1542" filterUnits="userSpaceOnUse" color-interpolation-filters="sRGB"><feFlood flood-opacity="0" result="BackgroundImageFix"/><feBlend in="SourceGraphic" in2="BackgroundImageFix" result="shape"/><feGaussianBlur stdDeviation="200" result="effect1_foregroundBlur_67_38"/></filter></defs></svg>